<?xml version="1.0" standalone="no"?><svg xmlns="http://www.w3.org/2000/svg" viewBox="0 0 1440 320"><path fill="#f6a700" fill-opacity="1" d="M0,288L24,256C48,224,96,160,144,138.7C192,117,240,139,288,170.7C336,203,384,245,432,250.7C480,256,528,224,576,224C624,224,672,256,720,234.7C768,213,816,139,864,101.3C912,64,960,64,1008,80C1056,96,1104,128,1152,117.3C1200,107,1248,53,1296,69.3C1344,85,1392,171,1416,213.3L1440,256L1440,320L1416,320C1392,320,1344,320,1296,320C1248,320,1200,320,1152,320C1104,320,1056,320,1008,320C960,320,912,320,864,320C816,320,768,320,720,320C672,320,624,320,576,320C528,320,480,320,432,320C384,320,336,320,288,320C240,320,192,320,144,320C96,320,48,320,24,320L0,320Z"></path></svg>